<svg version="1" xmlns="http://www.w3.org/2000/svg" width="800" height="800" viewBox="0 0 600.000000 600.000000"><path d="M131.5 162.6c-19.5 4-36.4 10.2-53.2 19.4-15.7 8.6-30.1 26.5-36 44.8-6.8 20.8-.5 50.7 11.5 55.3 4 1.5 13-.7 16.4-4.1 3.5-3.6 3.6-6.5.1-16.1-3.7-10.3-4.1-24.7-1-34 6.2-18.3 20.3-30.2 45.5-38.5 9.5-3.1 10.2-3 10.3.3 0 1.6.2 5.3.4 8.3.6 8.1.6 45.4 0 53.5-.5 9.1-1.6 21.1-2 23.8-.2 1.2-.6 4.4-1 7.2-1.2 9.6-2.2 15.4-5 27.7-1.3 5.8-4.9 17.4-7.5 24.3-14 36.2-37.3 53.4-65 47.6-8.3-1.7-12.1-.5-16.6 5.4-2.8 3.7-4.1 10.4-3 14.9 1.2 5 8.1 8.8 18.1 10.1 5.3.7 23.2.7 27 0 33.2-6.1 56.7-37.6 72.6-97.3 3.2-11.9 3.3-12.1 5.4-22.2.7-3.6 1.4-5.6 1.5-4.5.1 1.1.3 2.7.5 3.5.1.8.5 4.2.8 7.6 3.6 38.5 18.6 76 38.5 95.9 9.3 9.3 22.2 17.2 31.2 19 13.9 2.9 28.6 2.1 42.2-2.1 10.5-3.3 13.8-6.2 13.8-12 0-2.5-.7-5.9-1.6-7.5-1.7-3.4-7.2-6.2-10.7-5.5-1.2.3-4.2.8-6.7 1.1-2.5.3-7.2.9-10.5 1.4-20.7 2.9-37.6-9.9-51.4-39-6.5-13.6-10.7-26.2-14.6-43.4-1.8-7.9-4.2-21.1-3.9-21.7.3-.3 4.8-3 10.1-5.9 22.2-11.9 43.4-28.1 66.4-50.6 12-11.7 13.5-13 13.1-10.3-.8 5.4 5.9 13.8 16 20.3 3.7 2.3 4.4 2.2 5.9-1.6 2.2-5.4 11-20.9 14.2-25.2 8.8-11.6 17.5-15.7 21.3-10 2.3 3.6 2.3 16.4-.1 28.5-.2 1.4-1 5-1.6 8-1.5 7.7-6.2 25.3-12.6 47-3 10.2-6.1 20.5-6.8 23-.7 2.5-5 16.9-9.5 32-4.5 15.1-9 30.3-10 33.7l-1.8 6.2 3.1 2c11.5 6.9 26.6 7.6 31.3 1.3 1.6-2.1 3.9-8.5 9.4-25.7 14.6-46.1 35-99.8 44.2-116.4 12.6-22.7 24.8-32.5 39.4-31.6 9.3.6 13.8 7.1 13.7 20-.1 11.7-3 23.3-19.8 79-5.8 19.1-18.4 62-19 64.8-.2.9-.6 2.1-.9 2.6-.7 1 3.2 3.8 8.8 6.3 4.8 2.2 12.7 3 16.4 1.6 4.1-1.6 6.5-6.5 14.2-28.6 34.2-98.9 45.8-125.5 62.4-143.9 10.7-11.8 25-13.6 29.3-3.6 4 9.7 1.5 24.8-11.3 67.8-2.5 8.2-5.4 17.9-6.4 21.5-1.1 3.6-4.2 14.1-7 23.3-7.8 26.4-9.8 39-7.8 50 1.7 9.1 7.6 17.6 15.2 22.1 12.9 7.5 35.9 7.4 49.9-.2 6.2-3.4 16.2-12.7 17.7-16.5 2.4-6.5.4-12.4-5.1-15.3-4.8-2.4-8.1-1.8-13 2.6-6.2 5.7-11 8-18.4 8.7-5.6.5-6.9.3-10.7-2-2.4-1.4-5-3.8-5.8-5.3-2.1-3.8-1.7-12.5.9-21.3 1.3-4.1 2.4-8.1 2.6-9 .2-.9 5.2-17.8 11-37.6 10-34.1 14-49 16.4-61.5 2.1-10.9 2.2-12.7 2.6-23.8.3-9 0-12.4-1.5-16.6-5.8-17.1-13.4-22.8-30.1-22.7-19.2 0-33.6 9.3-48.2 30.8-6.4 9.6-16.7 29.2-20.2 38.6-2 5.3-3.3 5.7-1.7.5.6-1.8 1.4-5.3 1.8-7.8.4-2.5.8-4.7.9-5 2-7.4 2.4-24.2.8-31.8-3.1-14.9-9.7-21-24.2-21.9-22.2-1.5-44.9 13.6-62 41.1-4.8 7.6-16.1 29.8-16.1 31.5 0 .5-.4 1.2-.9 1.5-.5.3.2-3.1 1.5-7.7 1.4-4.5 2.9-10.2 3.4-12.7s1.2-5.6 1.5-7c5.9-27.6 2.3-41.1-12.5-47.1-2.3-.9-7.3-1.4-14.5-1.4-12.2.1-17.1 1.5-27.8 7.9-6 3.6-6.3 3.6-4.7-1 2.8-8.5 1.7-14.3-3.2-16.7-8.1-3.9-14.9.3-27.2 16.8-8.4 11.2-31.2 35.1-46.1 48.4-11.7 10.4-49.1 37.1-52 37.1-.3 0-2.3 1.1-4.5 2.5-3.8 2.4-6.6 3.3-5.7 1.7.3-.4.8-4.5 1.2-9.2.4-4.7.8-8.7 1-9 .2-.3.6-5.2 1-11 .4-5.7.9-11.3 1.1-12.5.6-3 1.8-39.4 1.7-51.2-.1-8.9-.4-10.6-2.3-13-4.7-6-7.1-6.3-24.5-2.7z"/></svg>